
<svg version="1.1" xmlns="http://www.w3.org/2000/svg" xmlns:xlink="http://www.w3.org/1999/xlink" x="0px" y="0px"
	 viewBox="0 0 443.4 283.5" style="enable-background:new 0 0 443.4 283.5;" xml:space="preserve">
<style type="text/css">
	.st0{fill:#FFCD4B;}
	.st1{fill:#FFFFFF;}
	.st2{fill:#333333;}
</style>
<g>
	<rect x="77.6" y="12.9" class="st0" width="270.5" height="270.5"/>
	<g>
		<polygon class="st1" points="340.2,160.8 337.3,163.8 335.9,160.8 		"/>
		<g>
			<path class="st2" d="M147.9,219.3c-2.5-4.5-6.5-4.9-10.1-3.6c-6.9,2.3-13.6,5.1-20,8.4c-5.1,2.7-5.3,5.4-2.3,11.1
				c3.1-2.3,6.1-4.6,9.2-6.9c0.5,0.4,1,0.8,1.5,1.2c-2.9,5.8-5.8,11.6-9,18.1c-6-4.8-12.7-14.1-11.7-17.6c1.1-3.6,4.6-6.4,7-9.6
				c4.9-6.4,10.3-12.6,14.6-19.4c3.6-5.8,1.5-10.8-4.7-13.9c-8.9-4.5-18.1-1.6-22.7,7.4c-4.2,8.1-4.8,16.9-3.5,25.7
				c0.5,3.6-0.4,5.8-2.7,8.3c-6,6.8-11.9,13.7-17.2,21.1c-3.5,4.8-5.1,10.7-0.9,16.2c4.1,5.4,9.9,6.8,16.4,5.8
				c8.7-1.3,15.8-5.7,22.2-11.3c1.8-1.6,3.2-2,5.6-1c6.8,2.8,13.4,1.8,19.1-2.9c2.8-2.3,4.9-5.3,2.9-9.8c-5.6,3.7-11.2,6-18,4
				c2.2-3.5,4.3-6.6,6.2-9.9c2.7-4.8,6.2-9.8,0-15.1c3.5-1.4,6.2-2.6,9-3.5C141.9,221,144.8,220.2,147.9,219.3z M107,197.1
				c1.5-2.3,3.6-4.4,5.8-5.9c1.2-0.8,3.8-1.1,4.9-0.3c1.1,0.7,1.9,3.2,1.6,4.6c-0.6,2.7-1.7,5.4-3.3,7.6c-3.8,5.1-8.1,10-12.9,15.9
				C102.2,210.3,103,203.3,107,197.1z M90,264.9c-5.2,1.3-7.8-1.1-6.6-6.3c0.7-3.1,2.1-6.3,3.9-9c3.6-5.1,7.7-9.9,11.7-15
				c3.8,6.6,7.1,12.2,10.7,18.2C104.2,258.2,97.9,262.9,90,264.9z"/>
			<path class="st2" d="M442.9,143c-0.5,0-1.1,0-1.6-0.1c-1.2,1.6-2.2,3.3-3.6,4.6c-7,7-13.9,14-21.3,20.6c-1.4,1.3-4.6,2.8-6.6,0.6
				c-1.9-2.5-1.9-4.7-1.5-7.8c0.3-2.5,1-3.9,3.9-4.7c9.2-2.6,15.5-8.7,19.2-17.4c2.2-5.2,0.7-8.5-4.4-10.9
				c-4.9-2.3-9.5-1.3-13.8,3.4c-7,7.7-10.4,17.1-13.2,26.9c-2.1,7.5-7.4,12.8-14.4,18.2c-2.1-9.2-0.9-16.8,2.2-24.2
				c5.4-12.8,11.1-25.5,16.6-38.3c1.1-2.6,2.2-5.5,1.9-8.1c-0.3-2.4-2.4-4.6-3.7-6.9c-1.7,1.3-3.7,2.3-5.1,3.8
				c-1.3,1.4-2.2,3.4-2.8,5.2c-5.3,15.7-11.2,31.2-15.3,47.2c-2.5,9.6-7.4,16.7-14.1,23.2c-1,0.9-3.4,3.1-4.4,2.3
				c-1.9-1.4,11.8-48.6,24.3-70.2c-6-3.8-8.9-3.2-12.1,2.9c-1.7,3.4-3.4,6.9-4.7,10.4c-3.6,9.4-7,18.9-10.5,28.4
				c-10.2-5-15.2-3.9-21.6,5.9c-3.3,5.1-6,10.7-8.2,16.3c-4.7,11.8-13.7,19.7-23.8,26.4c-1.5,1-4.8,1.6-6.2,0.2
				c-2.2-2.6-1.8-5.6-1.3-8.3c0.4-2.2,1.9-3.3,3.4-3.8c8.7-2.8,15-8.4,18.9-16.5c1.5-2.9,2.9-6.2,0-9.2c-3-3.2-6.9-5.1-11.2-3.5
				c-2.8,1-5.2,3-8,6.3c-3.2,4.3-7.8,12-9.8,19.2c-3.5,12.5-12.5,18.4-21.7,25.8c-2.2,1.8-5.3,1.6-6.7,0.7c-2.2-1.5-1.8-5.6-1.3-8.3
				c0.4-2,1.9-3.3,3.3-3.8c8.7-2.8,15-8.4,19-16.4c1.6-3.1,2.9-6.6-0.3-9.6c-3.2-3.1-7-4.7-11.3-3.1c-2.1,0.8-4.2,2.1-5.7,3.7
				c-8.5,9.4-13,20.7-14,33.2c-0.4,5.2,2.1,9.3,6.8,11.8c4.5,2.4,9,2.3,13.1-0.8c2.6-2,5.2-4.1,7.6-6.4c3.1-3.1,5.9-6.6,8.9-9.9
				c8.3,10.4,15.2,10.9,24.9,1.8c3.9-3.7,7.4-7.9,11.4-12.2c0.8,5.3,4,8.4,8.7,9.2c4.8,0.9,6.8-3.4,9.2-6.4c1.5-1.9,2.8-4.1,4.1-6.2
				c1.7-2.8,3.4-5.7,5.7-9.5c0.1,2.8,0.5,5.1,0.6,5.7c0.4,3,2.9,5.4,5.4,6c1.7,0.5,4.3-0.2,6.4-2.2c4-3.9,7.2-7.9,9.9-11.1
				c1.9,3.2,3,8.1,8.2,8.2c3,0.1,6.4-3,8.9-5.4c3.2-3.1,5.6-6.9,8.3-10.5c7.5,10,15,11.1,23.7,2.3c7.3-7.3,13.3-16,19.6-24.3
				C443.8,146.8,443,144.6,442.9,143z M425.4,133.3c0.6,6.1-5.8,14.6-13.5,17.9C413.8,142.3,419.9,134.1,425.4,133.3z M313.5,165.1
				c1,6.4-5.2,14.8-14.3,19.1C303.2,176.5,305.2,168.7,313.5,165.1z M277.2,176.3c1,5.8-5.1,14.1-13.2,18
				C265.2,186.4,271.7,177.6,277.2,176.3z M354.8,164c-5.1,8.3-10.5,16.4-15.9,24.5c-1,1.4-3.6,5.3-5.4,4.2c-1.5-1.2-0.4-4.5-0.1-6
				c2-9.9,5.7-19,11.8-27c1.2-1.5,2.7-2.9,4.4-3.9c2.9-1.8,5.8-0.4,6.1,3C355.8,160.5,355.7,162.6,354.8,164z"/>
			<path class="st2" d="M196,156.6c12.3,5.9,20.7,15.6,28.3,26.2c1,1.4,1.7,3.5,4.7,1.9c1.7-1,2-3.9,0.7-6.2
				c-0.2-0.3-0.4-0.6-0.7-0.9c-1.8-2.4-3.4-4.9-5.3-7.2c-8-9.8-16.8-18.9-30.2-22.7c-0.4-0.1-1-0.7-0.9-1c0.7-2.3,1.5-4.6,2.6-6.9
				c0.4-0.8,1.7-2.3,2.6-2c0.8,0.3,1.5,1.2,1.6,2.1c0.1,1.4-0.5,3-0.8,4.5c-0.3,1.8-0.5,3.8,1.7,3.8c2.2,0,3.9-2,4.3-3.9
				c0.8-3.2,1.5-6.4,1.3-9.3c-0.2-4.2-4.2-5.9-8.8-4.4c-5,1.6-8.5,5.5-9.8,11.4c-7.8,35.1-15.5,70.2-23.2,105.2
				c-0.6,2.8-0.9,4.3-1,7c0,0.9,0.2,2.3,1.2,2.5c1.3,0.3,2.2-0.9,2.6-1.8c0.9-1.9,1.8-3.7,2.5-5.7c9.7-28.2,19.3-56.5,28.9-84.7
				c0.3-1,0.8-2.1,0.6-2.9c-0.3-1-1-1.9-1.8-2.2c-1.3-0.4-2.7,0.5-3.4,1.9c-0.7,1.4-0.9,2.1-1.6,3.1c-0.6,0.9-1.4,1.7-2.2,2.6
				c-0.5-0.7-1.6-1.3-1.5-2.1c0.4-3.3,1.2-6.6,1.9-10.5C192.6,155.2,194.4,155.8,196,156.6z"/>
			<path class="st2" d="M238.1,199.8c-1.6,0.8-2,3.3-1.1,5.7c1.1,3,2.4,5.8,3,9c0.5,2.7,0.8,5.9-0.2,8.7c-0.9,2.6-2.2,3.4-4.1,4.2
				c-2.1,0.9-3.4-0.6-3.8-1.8c-0.8-2.2-1.2-4.8-0.9-7.4c1-10.1,3.5-20.5,6.5-30.9c1.6-5.6,3.2-11.2,4.9-16.8
				c5.5-17.9,11.8-35.6,21-53.2c0.4-0.8,0.7-1.7,0.9-2.4c0.3-0.9,0.3-1.5-0.4-1.9c-1.3-0.8-3.4,1.3-3.7,1.6c-1,1.1-1.8,2.3-2.5,3.5
				c-2.4,4.4-4.8,8.9-6.8,13.3c-8.9,19.5-15.4,39.1-20.6,58.7c-2.9,10.8-5.6,21.9-6.2,32.4c-0.3,4.3,0.2,6.4,1.9,9.1
				c2.5,3.9,8.9,4.2,13.5,0.7c5.4-4.1,7.7-9.2,8-14.6c0.4-6.5-2.5-11.2-5.2-16C241.5,200.4,240.7,198.6,238.1,199.8z"/>
			<path class="st2" d="M174.9,172.9c1.5-4.8-0.9-8.6-5.5-8.4c-1,0.1-2.6,0.7-3.2,1.5c-0.8,1.1-0.5,2.1,0.2,2.9
				c0.5,0.6,1.2,1.1,1.8,1.7c1.1,1.1,1.4,2.8-0.1,4.4c-1.3,1.3-3.3,2.6-4.8,2.9c-2.5,0.4-3.9-1.1-4.5-3.2c-1.1-3.8,1.1-9.3,5.3-13
				c3.7-3.3,7.8-5.7,12.7-6.8c0.4-0.1,1.2-0.4,2-0.6c2.3-0.6,4.1-1.7,4.4-4.2c0.3-2-1.3-2.9-4.1-2.2c-8.2,2-15.6,6.2-21.7,13.3
				c-5.6,6.6-7.1,14-3.9,19c2.2,3.5,7.1,4.6,12.1,2.7C169.8,181.3,173.5,177.4,174.9,172.9z"/>
			<path class="st2" d="M94,68.2c-5.1,13.6-10.6,27.2-15.4,40.9c-3,8.6-4.9,17.5-7.2,26.3c-1.1,4.3,0.5,7.6,4.2,9.6
				c0.9,0.5,3.5-0.3,4.1-1.2c8.4-13.5,16.6-27.1,24.9-40.7c0.7-1.1,1.7-2.1,2.5-3.2c-0.1,1.9-0.8,3.4-1.2,5
				c-1.6,6.7-3.4,13.4-4.4,20.3c-0.6,4.2,2.4,7.6,6.2,8.5c2,0.5,5-1.5,7-3.1c2.4-2,4.4-4.5,6.1-7.2c6.9-11.1,13.8-22.2,20.2-33.6
				c2.1-3.7,4.1-4.7,8.4-2.5c-1,2.7-1.9,5.3-3,7.8c-2.7,6.6-5.9,13-8.1,19.7c-0.7,2.3,0.2,6,1.8,7.9c3.9,4.7,7.8,4.7,12.2,0.2
				c4.5-4.6,8.4-9.7,12.6-14.6c6.2,9.2,13.3,10.6,21.7,3.7c5-4.2,9.3-9.2,14.1-14c0.9,4.7,3.6,8.2,8.2,9.1c4.7,0.9,7-2.6,9.3-5.7
				c1.3-1.7,2.3-3.4,3.3-4.9c2.7-4.1,5.3-8.3,8.5-13.3c0.1,2.5,0.2,4,0.2,5.4c0.1,4,2,7.2,5.7,7.6c2.2,0.3,5-1.5,6.8-3.2
				c2.8-2.6,4.9-5.9,7.8-9.5c0.9,5.7,4.3,8.6,8.5,8.8c4,0.2,5.8-1.8,8.3-5c1.2-1.5,2.4-3.1,3.5-4.8c2.3-3.7,4.5-7.4,7.1-11.8
				c0,2,1.8,9.9,5.6,11.6c3.9,1.8,6.2-0.9,8-3.2c5.7-7.1,11.1-14.4,16.3-21.9c0.7-1-0.2-3.2-0.4-4.8c-7.1,7-11.3,15.2-20.1,19.5
				c4-24.6,11.5-48,24-69.6c-5.9-3.8-8.9-3.2-12,2.9c-1.7,3.4-3.4,6.9-4.7,10.4c-3.6,9.4-7,18.9-10.5,28.4
				c-10.3-4.9-15.3-3.9-21.6,5.9c-3.8,5.9-6.4,12.7-9.3,19.1c-3.2,6.9-7.4,12.9-14.1,17.3c0.2-4.5,0.8-8.9,2.2-12.9
				c1.1-3.3-0.3-4.6-2.8-5.7c-3-1.4-4.5,0.1-6,2.5c-5,7.6-10.1,15.2-15.3,22.6c-1.5,2.1-5.2,5.9-6.4,5.2c-1.3-0.7-0.8-4.1-0.5-5.8
				c2.3-10.9,6.8-20.7,13.7-29.5c1.5-1.9,3.5-3.5,5.6-4.8c2.8-1.7,4.7-0.9,5.1,2.6c0.1,0.9,0.5,1.7,0.8,2.7
				c4.7-4.1,4.2-8.8-1.1-10.8c-6.2-2.3-12-1-15.6,4.2c-5.2,7.6-10.1,15.6-13.8,23.9c-5.2,11.6-13.8,19.6-23.9,26.5
				c-1.6,1.1-4.7,1.7-5.9,0.7c-1.6-1.3-1.8-3.5-1.1-5.6c0.4-1.4,2.2-4,3.7-4.5c8.7-3,14.2-10.9,18.1-19c1.4-3,2.7-6.3-0.3-9.2
				c-3-3-6.7-4.9-10.8-3.4c-2.8,1-5.8,3.6-7.9,6.5c-4.7,6.5-8.3,12.6-10.5,20.2c-2.5,8.9-7.9,15.1-14.2,21c-1.2,1.1-2.9,1.7-5.7,3.2
				c1.1-3.7,1.6-5.9,2.5-8c2.1-5.2,4.5-10.3,6.5-15.6c2.3-5.8-0.2-10-6.4-11.2c-1.1-0.2-2.2-0.3-3.6-0.5c1-2.9,1.9-5.6,2.9-8.2
				c1.6-4.1-0.2-5.9-4.2-6.3c-6.4-0.7-10.2,3.2-13.3,7.8c-5.2,7.8-3.5,11.3,5.6,11.9c0.3,0,0.5,0.3,1.1,0.7
				c-7.4,13-13.7,26.8-26.6,35.9c-0.8-11.7,4-21.5,9.2-31.1c-6.6-6.4-9.6-6.5-14.5,0.5c-7.3,10.4-14,21.3-20.9,32
				c-0.9,1.4-1.7,2.8-2.5,4.2c-0.4-0.2-0.8-0.4-1.2-0.6c5.3-15.2,10.3-30.4,16-45.4c2.5-6.6,6.1-12.8,9.9-18.8
				c2.6-4.1,3-5.7-1.4-7.6c-1.7-0.7-4-1.2-5.8-1c-9.6,0.4-17.9,0.5-28.6,1.9c0.2-1.3,0.4-2.5,0.3-3.8c-0.1-3.4-3-5.7-6.4-5.7
				c-3.6,0-6.2,2.2-7.2,6.6c-0.4,1.7-0.8,3.5-1.2,5.4c-2.3,0.4-4.3,0.8-5.1,1c-16.9,3.7-33.4,8.4-48.2,17.5C1.6,79.7,1.1,82.8,0,85
				c2.1-0.2,4.5,0.3,6.3-0.5c11.8-5.6,24.2-11.1,36.9-14.6c2.4-0.7,7.1-1.6,11.8-2.4c-6.2,26.9-15.2,65.5-20.2,87.6
				c-0.5,2.1-1,4.9-0.6,6.4c0.1,0.5,0.5,1.3,0.9,1.4c0.5,0.1,1.1-0.4,1.4-0.8c1.4-1.6,1.6-2.6,2.2-4c7.2-19.9,20-62.6,27.2-82.5
				c0.2-0.5,0.6-1.7,0.6-1.9c1-3,1.9-5.9,2.9-8.9c4.4-0.6,17.7-1.6,26.7-2.3l-1.2,3.3C94.4,67,94.3,67.7,94,68.2z M259.6,78.2
				c1.8-9.9,5.7-19,11.8-27c1.1-1.4,2.5-2.7,4-3.6c3.3-2.1,6.3-0.6,6.5,3.4c0.1,1.3,0,2.9-0.6,3.9c-5.8,9-11.4,17.5-17.4,26.4
				c-1.9,2.5-4.4,0.9-4.4-1.1C259.4,79.5,259.4,78.9,259.6,78.2z M190.3,71.1c0.2,7.5-7.4,18.6-15.1,21.2
				C178.8,85.1,181.7,75.1,190.3,71.1z M136.5,79.1c1.3-2.8,3.1-5.3,4.7-8c0.8,0.4,1.6,0.7,2.3,1.1c-1,3.1-1.9,6.2-3.2,9.2
				c-0.2,0.5-2.1,1-2.4,0.6C137.2,81.3,136.2,79.7,136.5,79.1z M63.4,54.9c0.3-0.6,1.3-1.9,2.3-1.5c0.7,0.3,1.2,1.4,1.2,2.2
				c0,0.3-0.3,1.3-0.7,2.8c-1.2,0.2-2.7,0.5-4.2,0.8C62.7,57,63.2,55.4,63.4,54.9z M59.3,75.7c-1-0.4-0.9-1.4-0.9-2
				c0.1-1.1,0.8-4,1.7-7.3c1.5-0.3,2.8-0.5,4-0.8c-1.3,4.2-2.6,8.1-2.7,8.4C61,75.1,60.4,76.1,59.3,75.7z"/>
		</g>
		<g>
			<g>
				<path class="st2" d="M282.6,255.2h-2.8v-1h6.7v1h-2.8v7.1h-1.1V255.2z"/>
				<path class="st2" d="M297.1,260.2h-4.3l-0.9,2h-1.2l3.6-8.1h1.1l3.7,8.1h-1.2L297.1,260.2z M296.7,259.3l-1.7-3.9l-1.7,3.9
					H296.7z"/>
				<path class="st2" d="M305,254.2h1.1v8.1H305V254.2z"/>
				<path class="st2" d="M313.1,254.2h1.1v7.1h4.4v1h-5.5V254.2z"/>
				<path class="st2" d="M325.9,261.8c-0.7-0.4-1.2-0.8-1.5-1.5c-0.4-0.6-0.6-1.3-0.6-2.1c0-0.8,0.2-1.5,0.6-2.1
					c0.4-0.6,0.9-1.1,1.5-1.5c0.7-0.4,1.4-0.5,2.2-0.5c0.8,0,1.5,0.2,2.2,0.5c0.7,0.4,1.2,0.8,1.5,1.5c0.4,0.6,0.6,1.3,0.6,2.1
					c0,0.8-0.2,1.5-0.6,2.1c-0.4,0.6-0.9,1.1-1.5,1.5c-0.7,0.4-1.4,0.5-2.2,0.5C327.2,262.3,326.5,262.1,325.9,261.8z M329.7,260.9
					c0.5-0.3,0.8-0.6,1.1-1.1c0.3-0.5,0.4-1,0.4-1.6c0-0.6-0.1-1.1-0.4-1.6c-0.3-0.5-0.6-0.8-1.1-1.1c-0.5-0.3-1-0.4-1.6-0.4
					c-0.6,0-1.1,0.1-1.6,0.4c-0.5,0.3-0.9,0.6-1.1,1.1c-0.3,0.5-0.4,1-0.4,1.6c0,0.6,0.1,1.1,0.4,1.6c0.3,0.5,0.6,0.8,1.1,1.1
					c0.5,0.3,1,0.4,1.6,0.4C328.7,261.3,329.2,261.1,329.7,260.9z"/>
				<path class="st2" d="M344.3,262.2l-1.7-2.5c-0.2,0-0.4,0-0.5,0h-2v2.5h-1.1v-8.1h3.1c1,0,1.9,0.2,2.5,0.7
					c0.6,0.5,0.9,1.2,0.9,2.1c0,0.6-0.2,1.2-0.5,1.6c-0.3,0.4-0.7,0.8-1.3,1l1.9,2.7H344.3z M343.6,258.3c0.4-0.3,0.6-0.8,0.6-1.3
					c0-0.6-0.2-1-0.6-1.3c-0.4-0.3-0.9-0.5-1.7-0.5h-2v3.6h2C342.7,258.8,343.3,258.6,343.6,258.3z"/>
				<path class="st2" d="M352.7,258.6h3.1v1h-3.1V258.6z"/>
				<path class="st2" d="M370,262.2l0-5.9l-2.9,4.9h-0.5l-2.9-4.9v5.8h-1.1v-8.1h0.9l3.4,5.7l3.3-5.7h0.9l0,8.1H370z"/>
				<path class="st2" d="M383.2,260.2h-4.3l-0.9,2h-1.2l3.6-8.1h1.1l3.7,8.1h-1.2L383.2,260.2z M382.8,259.3l-1.7-3.9l-1.7,3.9
					H382.8z"/>
				<path class="st2" d="M391.1,254.2h3.4c0.9,0,1.6,0.2,2.3,0.5c0.7,0.3,1.2,0.8,1.5,1.4c0.4,0.6,0.5,1.3,0.5,2.1
					c0,0.8-0.2,1.5-0.5,2.1c-0.4,0.6-0.9,1.1-1.5,1.4c-0.7,0.3-1.4,0.5-2.3,0.5h-3.4V254.2z M394.4,261.2c0.7,0,1.2-0.1,1.7-0.4
					c0.5-0.3,0.9-0.6,1.1-1.1c0.3-0.5,0.4-1,0.4-1.6c0-0.6-0.1-1.1-0.4-1.6c-0.3-0.5-0.7-0.8-1.1-1.1c-0.5-0.3-1.1-0.4-1.7-0.4h-2.2
					v6.1H394.4z"/>
				<path class="st2" d="M411,261.2v1h-5.8v-8.1h5.7v1h-4.5v2.5h4v1h-4v2.6H411z"/>
			</g>
			<g>
				<path class="st2" d="M225.6,283.4l0-5.9l-2.9,4.9h-0.5l-2.9-4.9v5.8h-1.1v-8.1h0.9l3.4,5.7l3.3-5.7h0.9l0,8.1H225.6z"/>
				<path class="st2" d="M238.8,281.4h-4.3l-0.9,2h-1.2l3.6-8.1h1.1l3.7,8.1h-1.2L238.8,281.4z M238.4,280.4l-1.7-3.9l-1.7,3.9
					H238.4z"/>
				<path class="st2" d="M252.1,283.4l-1.7-2.5c-0.2,0-0.4,0-0.5,0h-2v2.5h-1.1v-8.1h3.1c1,0,1.9,0.2,2.5,0.7
					c0.6,0.5,0.9,1.2,0.9,2.1c0,0.6-0.2,1.2-0.5,1.6c-0.3,0.4-0.7,0.8-1.3,1l1.9,2.7H252.1z M251.5,279.5c0.4-0.3,0.6-0.8,0.6-1.3
					c0-0.6-0.2-1-0.6-1.3c-0.4-0.3-0.9-0.5-1.7-0.5h-2v3.6h2C250.5,279.9,251.1,279.8,251.5,279.5z"/>
				<path class="st2" d="M262.3,279.8l-1.5,1.5v2.1h-1.1v-8.1h1.1v4.5l4.4-4.5h1.3l-3.4,3.6l3.7,4.4h-1.3L262.3,279.8z"/>
				<path class="st2" d="M278.4,282.4v1h-5.8v-8.1h5.7v1h-4.5v2.5h4v1h-4v2.6H278.4z"/>
				<path class="st2" d="M286.5,276.3h-2.8v-1h6.7v1h-2.8v7.1h-1.1V276.3z"/>
				<path class="st2" d="M296.3,275.3h1.1v8.1h-1.1V275.3z"/>
				<path class="st2" d="M311.4,275.3v8.1h-0.9l-4.8-6v6h-1.1v-8.1h0.9l4.8,6v-6H311.4z"/>
				<path class="st2" d="M324,279.3h1.1v3.1c-0.4,0.3-0.9,0.6-1.4,0.8c-0.5,0.2-1.1,0.3-1.7,0.3c-0.8,0-1.5-0.2-2.2-0.5
					c-0.7-0.4-1.2-0.8-1.5-1.5c-0.4-0.6-0.6-1.3-0.6-2.1c0-0.8,0.2-1.5,0.6-2.1c0.4-0.6,0.9-1.1,1.5-1.5c0.7-0.4,1.4-0.5,2.2-0.5
					c0.6,0,1.2,0.1,1.8,0.3c0.5,0.2,1,0.5,1.3,0.9l-0.7,0.7c-0.6-0.6-1.4-0.9-2.3-0.9c-0.6,0-1.2,0.1-1.7,0.4
					c-0.5,0.3-0.9,0.6-1.1,1.1c-0.3,0.5-0.4,1-0.4,1.6c0,0.6,0.1,1.1,0.4,1.6c0.3,0.5,0.7,0.8,1.1,1.1c0.5,0.3,1,0.4,1.6,0.4
					c0.7,0,1.4-0.2,1.9-0.5V279.3z"/>
				<path class="st2" d="M344.7,281.4h-4.3l-0.9,2h-1.2l3.6-8.1h1.1l3.7,8.1h-1.2L344.7,281.4z M344.3,280.4l-1.7-3.9l-1.7,3.9
					H344.3z"/>
				<path class="st2" d="M358.1,279.3h1.1v3.1c-0.4,0.3-0.9,0.6-1.4,0.8c-0.5,0.2-1.1,0.3-1.7,0.3c-0.8,0-1.5-0.2-2.2-0.5
					c-0.7-0.4-1.2-0.8-1.5-1.5c-0.4-0.6-0.6-1.3-0.6-2.1c0-0.8,0.2-1.5,0.6-2.1c0.4-0.6,0.9-1.1,1.5-1.5c0.7-0.4,1.4-0.5,2.2-0.5
					c0.6,0,1.2,0.1,1.8,0.3c0.5,0.2,1,0.5,1.3,0.9l-0.7,0.7c-0.6-0.6-1.4-0.9-2.3-0.9c-0.6,0-1.2,0.1-1.7,0.4
					c-0.5,0.3-0.9,0.6-1.1,1.1c-0.3,0.5-0.4,1-0.4,1.6c0,0.6,0.1,1.1,0.4,1.6c0.3,0.5,0.7,0.8,1.1,1.1c0.5,0.3,1,0.4,1.6,0.4
					c0.7,0,1.4-0.2,1.9-0.5V279.3z"/>
				<path class="st2" d="M371.8,282.4v1H366v-8.1h5.7v1h-4.5v2.5h4v1h-4v2.6H371.8z"/>
				<path class="st2" d="M385.2,275.3v8.1h-0.9l-4.8-6v6h-1.1v-8.1h0.9l4.8,6v-6H385.2z"/>
				<path class="st2" d="M393.7,282.9c-0.6-0.4-1.2-0.8-1.5-1.5c-0.4-0.6-0.6-1.3-0.6-2.1c0-0.8,0.2-1.5,0.6-2.1
					c0.4-0.6,0.9-1.1,1.5-1.5c0.7-0.4,1.4-0.5,2.2-0.5c0.6,0,1.2,0.1,1.7,0.3c0.5,0.2,1,0.5,1.3,0.9l-0.7,0.7c-0.6-0.6-1.4-1-2.3-1
					c-0.6,0-1.1,0.1-1.6,0.4c-0.5,0.3-0.9,0.6-1.1,1.1c-0.3,0.5-0.4,1-0.4,1.6c0,0.6,0.1,1.1,0.4,1.6c0.3,0.5,0.7,0.8,1.1,1.1
					c0.5,0.3,1,0.4,1.6,0.4c0.9,0,1.7-0.3,2.3-1l0.7,0.7c-0.4,0.4-0.8,0.7-1.3,0.9c-0.5,0.2-1.1,0.3-1.7,0.3
					C395,283.5,394.3,283.3,393.7,282.9z"/>
				<path class="st2" d="M408.1,280.6v2.8H407v-2.8l-3.2-5.2h1.2l2.6,4.2l2.6-4.2h1.1L408.1,280.6z"/>
			</g>
		</g>
	</g>
</g>
</svg>
